<?xml version="1.0" encoding="UTF-8" standalone="no"?>
<!DOCTYPE svg PUBLIC "-//W3C//DTD SVG 1.1//EN" "http://www.w3.org/Graphics/SVG/1.1/DTD/svg11.dtd">
<svg width="100%" height="100%" viewBox="0 0 120 33" version="1.1" xmlns="http://www.w3.org/2000/svg" xmlns:xlink="http://www.w3.org/1999/xlink" xml:space="preserve" xmlns:serif="http://www.serif.com/" style="fill-rule:evenodd;clip-rule:evenodd;stroke-linejoin:round;stroke-miterlimit:2;">
    <g transform="matrix(1,0,0,1,-0.0281232,-0.006)">
        <path d="M9.087,7.285C13.504,7.185 17.651,10.777 18.117,15.182C18.677,19.054 16.397,23.075 12.83,24.646C10.667,25.719 8.226,25.389 5.9,25.444L3.627,25.444L3.627,32.724L0.03,32.724C0.037,27.107 0.016,21.49 0.04,15.874C0.16,11.688 3.585,7.942 7.722,7.384C8.172,7.318 8.632,7.284 9.087,7.284L9.087,7.285ZM9.087,21.845C11.683,21.909 14.117,19.885 14.507,17.312C15.024,14.724 13.372,11.942 10.847,11.166C8.409,10.3 5.475,11.438 4.283,13.741C3.361,15.317 3.689,17.175 3.627,18.908L3.627,21.846L9.087,21.846L9.087,21.845ZM19.854,7.197L23.411,7.197L23.411,25.357L19.855,25.357L19.855,7.196L19.854,7.197ZM34.104,18.617L34.234,18.617L39.291,25.362L43.701,25.362L36.827,16.022L42.923,7.206L38.513,7.206L34.233,13.431L34.105,13.431L29.825,7.207L25.415,7.207L31.51,16.025L24.637,25.361L29.047,25.361L34.104,18.617Z" style="fill:#191B26;fill-rule:nonzero;"/>
    </g>
    <g transform="matrix(1,0,0,1,-0.0281232,-0.006)">
        <path d="M51.763,7.197C55.366,7.127 58.823,9.487 60.157,12.821C60.851,14.371 60.84,16.085 60.817,17.747L60.817,25.357C57.607,25.347 54.395,25.379 51.181,25.339C47.493,25.159 44.116,22.469 43.061,18.935C42.091,15.865 42.895,12.3 45.177,10.003C46.88,8.24 49.3,7.176 51.76,7.2L51.763,7.197ZM57.223,21.757C57.208,19.737 57.256,17.717 57.195,15.699C56.983,12.994 54.477,10.727 51.763,10.799C49.181,10.735 46.748,12.736 46.343,15.291C45.871,17.745 47.28,20.417 49.619,21.331C51.061,21.959 52.654,21.698 54.179,21.754L57.224,21.754L57.223,21.757ZM71.656,7.285C75.918,7.181 79.901,10.535 80.58,14.73C81.35,18.71 79.104,23.008 75.398,24.646C71.778,26.356 67.123,25.253 64.634,22.123C63.092,20.306 62.426,17.888 62.557,15.533L62.557,0.006L66.157,0.006L66.157,7.286L71.657,7.286L71.656,7.285ZM71.656,21.845C74.389,21.918 76.886,19.622 77.089,16.903C77.429,14.201 75.427,11.483 72.752,10.991C71.272,10.787 69.77,10.926 68.28,10.881L66.156,10.881C66.178,12.935 66.106,14.991 66.198,17.039C66.484,19.749 68.933,21.895 71.658,21.839L71.656,21.845ZM91.158,7.197C94.762,7.127 98.218,9.487 99.552,12.821C100.248,14.371 100.238,16.085 100.216,17.747L100.216,25.357C97.006,25.347 93.792,25.379 90.58,25.339C86.89,25.159 83.513,22.469 82.456,18.935C81.486,15.865 82.291,12.3 84.573,10.003C86.275,8.241 88.695,7.177 91.155,7.2L91.158,7.197ZM96.618,21.757C96.602,19.737 96.65,17.717 96.591,15.699C96.383,12.994 93.876,10.727 91.161,10.799C88.581,10.735 86.147,12.736 85.744,15.291C85.27,17.745 86.68,20.417 89.018,21.331C90.458,21.959 92.051,21.698 93.574,21.754L96.619,21.754L96.618,21.757ZM120.025,7.24C120.018,12.845 120.04,18.448 120.015,24.05C119.885,28.46 116.093,32.424 111.67,32.654C110.83,32.698 109.988,32.67 109.147,32.676L109.147,29.078C110.683,29.071 112.325,29.228 113.684,28.358C115.384,27.403 116.464,25.48 116.427,23.536C113.237,26.11 108.291,25.976 105.189,23.322C102.927,21.497 101.692,18.562 101.866,15.672L101.866,7.242L105.466,7.242C105.482,10.447 105.432,13.655 105.492,16.859C105.687,19.446 107.952,21.656 110.547,21.785C113.221,22.061 115.853,20.045 116.317,17.402C116.52,15.922 116.384,14.418 116.425,12.926L116.425,7.245L120.025,7.245L120.025,7.24Z" style="fill:#191B26;fill-rule:nonzero;"/>
    </g>
</svg>
